<svg width="24" height="24" viewBox="0 0 24 24" fill="none" xmlns="http://www.w3.org/2000/svg">
<path d="M8 21H16M12 15V21M5 5C5 5.26264 5.18106 5.52272 5.53284 5.76537C5.88463 6.00802 6.40024 6.2285 7.05025 6.41421C7.70026 6.59993 8.47194 6.74725 9.32122 6.84776C10.1705 6.94827 11.0807 7 12 7C12.9193 7 13.8295 6.94827 14.6788 6.84776C15.5281 6.74725 16.2997 6.59993 16.9497 6.41421C17.5998 6.2285 18.1154 6.00802 18.4672 5.76537C18.8189 5.52272 19 5.26264 19 5M5 5C5 4.73736 5.18106 4.47728 5.53284 4.23463C5.88463 3.99198 6.40024 3.7715 7.05025 3.58579C7.70026 3.40007 8.47194 3.25275 9.32122 3.15224C10.1705 3.05173 11.0807 3 12 3C12.9193 3 13.8295 3.05173 14.6788 3.15224C15.5281 3.25275 16.2997 3.40007 16.9497 3.58579C17.5998 3.7715 18.1154 3.99198 18.4672 4.23463C18.8189 4.47728 19 4.73736 19 5M5 5V5.388C5 5.82 5.126 6.241 5.362 6.594L10.362 14.103C10.995 15.054 12.242 15.286 13.147 14.62C13.338 14.479 13.505 14.304 13.638 14.103L18.638 6.594C18.874 6.241 19 5.82 19 5.388V5" stroke="white" stroke-linecap="round" stroke-linejoin="round"/>
</svg>
