<svg width="24" height="24" viewBox="0 0 24 24" fill="none" xmlns="http://www.w3.org/2000/svg">
<path d="M18.0002 3.99975C18.4216 3.9998 18.8321 4.13289 19.1733 4.38006C19.5145 4.62722 19.769 4.97583 19.9003 5.37615C20.0317 5.77647 20.0333 6.20805 19.9049 6.60933C19.7765 7.0106 19.5246 7.36108 19.1852 7.61075C20.7352 10.5508 20.0582 14.5278 17.2932 17.2928C14.5282 20.0578 10.5502 20.7348 7.61123 19.1848C7.44056 19.417 7.22173 19.6095 6.96972 19.7493C6.71771 19.8891 6.43847 19.9727 6.15112 19.9945C5.86377 20.0164 5.5751 19.9758 5.30488 19.8757C5.03465 19.7756 4.78925 19.6183 4.58548 19.4145C4.38171 19.2107 4.22438 18.9653 4.12427 18.6951C4.02415 18.4249 3.98362 18.1362 4.00544 17.8489C4.02725 17.5615 4.11091 17.2823 4.25068 17.0303C4.39045 16.7783 4.58303 16.5594 4.81523 16.3888C3.26523 13.4488 3.94223 9.47175 6.70723 6.70675C9.47223 3.94175 13.4502 3.26475 16.3892 4.81475C16.575 4.56211 16.8177 4.3567 17.0975 4.21513C17.3774 4.07355 17.6866 3.99978 18.0002 3.99975Z" stroke="white" stroke-linecap="round" stroke-linejoin="round"/>
</svg>
