<svg width="24" height="24" viewBox="0 0 24 24" fill="none" xmlns="http://www.w3.org/2000/svg">
<path d="M9.5 21V15.5001C9.5 14.9697 9.71071 14.461 10.0858 14.0859C10.4609 13.7108 10.9696 13.5001 11.5 13.5001H12.5C13.0304 13.5001 13.5391 13.7108 13.9142 14.0859C14.2893 14.461 14.5 14.9697 14.5 15.5001V21M6.133 21C4.955 21 4 20.02 4 18.81V10.0082C4 9.34318 4.295 8.71319 4.8 8.29819L10.667 3.48027C11.0419 3.16986 11.5133 3 12 3C12.4867 3 12.9581 3.16986 13.333 3.48027L19.199 8.29819C19.705 8.71319 20 9.34318 20 10.0082V18.81C20 20.02 19.045 21 17.867 21H6.133Z" stroke="#777777" stroke-linecap="round" stroke-linejoin="round"/>
</svg>
