<svg width="24" height="24" viewBox="0 0 24 24" fill="none" xmlns="http://www.w3.org/2000/svg">
<path d="M9.5 10H6.5C6.23478 10 5.98043 9.89464 5.79289 9.70711C5.60536 9.51957 5.5 9.26522 5.5 9V5C5.5 4.73478 5.60536 4.48043 5.79289 4.29289C5.98043 4.10536 6.23478 4 6.5 4H17.302C17.4485 3.99998 17.5932 4.03214 17.7259 4.09422C17.8586 4.1563 17.976 4.24677 18.0699 4.35924C18.1638 4.47171 18.2318 4.60343 18.2691 4.74509C18.3065 4.88674 18.3122 5.03487 18.286 5.179L16.5 15M8.5 4L10.5 15M12.5 4V3H14.5V4M11.5 15H15.5C16.2956 15 17.0587 15.3161 17.6213 15.8787C18.1839 16.4413 18.5 17.2044 18.5 18V20C18.5 20.2652 18.3946 20.5196 18.2071 20.7071C18.0196 20.8946 17.7652 21 17.5 21H9.5C9.23478 21 8.98043 20.8946 8.79289 20.7071C8.60536 20.5196 8.5 20.2652 8.5 20V18C8.5 17.2044 8.81607 16.4413 9.37868 15.8787C9.94129 15.3161 10.7044 15 11.5 15Z" stroke="white" stroke-linecap="round" stroke-linejoin="round"/>
</svg>
