<svg width="24" height="24" viewBox="0 0 24 24" fill="none" xmlns="http://www.w3.org/2000/svg">
<path d="M10.1999 9.30075C10.1998 9.02105 10.265 8.74519 10.3901 8.49505C10.5152 8.24491 10.6969 8.02736 10.9208 7.85968C11.1447 7.692 11.4045 7.57879 11.6798 7.52904C11.9551 7.47929 12.2381 7.49436 12.5065 7.57306C12.7749 7.65177 13.0213 7.79193 13.2261 7.98244C13.4309 8.17295 13.5885 8.40856 13.6863 8.67058C13.7842 8.9326 13.8196 9.21382 13.7899 9.49192C13.7601 9.77002 13.6659 10.0374 13.5148 10.2727C12.9765 11.1097 12 11.9071 12 12.9007V13.3506M11.9928 16.5006H12.0009M10.6103 3.5769C10.7926 3.39404 11.0092 3.24895 11.2477 3.14996C11.4861 3.05096 11.7418 3 12 3C12.2582 3 12.5139 3.05096 12.7523 3.14996C12.9908 3.24895 13.2074 3.39404 13.3897 3.5769L14.2978 4.48678C14.6668 4.85577 15.1673 5.06276 15.6884 5.06276H16.9745C17.2326 5.06241 17.4882 5.11295 17.7266 5.2115C17.9651 5.31005 18.1818 5.45467 18.3643 5.63708C18.5468 5.81949 18.6916 6.03611 18.7902 6.27453C18.8889 6.51295 18.9396 6.76848 18.9393 7.02651L18.9384 8.31257C18.9384 8.83456 19.1454 9.33405 19.5145 9.70304L20.4235 10.612C20.6062 10.7943 20.7512 11.0108 20.8502 11.2491C20.9491 11.4875 21 11.743 21 12.0011C21 12.2592 20.9491 12.5147 20.8502 12.7531C20.7512 12.9915 20.6062 13.208 20.4235 13.3902L19.5145 14.2983C19.1454 14.6673 18.9384 15.1677 18.9384 15.6888V16.9748C18.9388 17.2329 18.8882 17.4884 18.7897 17.7269C18.6911 17.9654 18.5465 18.182 18.3641 18.3645C18.1816 18.547 17.965 18.6917 17.7266 18.7904C17.4881 18.8891 17.2326 18.9397 16.9745 18.9395L15.6884 18.9386C15.1664 18.9386 14.6668 19.1456 14.2978 19.5146L13.3888 20.4235C13.2065 20.6063 12.99 20.7512 12.7516 20.8502C12.5132 20.9491 12.2576 21 11.9996 21C11.7415 21 11.4859 20.9491 11.2475 20.8502C11.0091 20.7512 10.7926 20.6063 10.6103 20.4235L9.70219 19.5146C9.51973 19.3318 9.30296 19.1868 9.06434 19.0879C8.82571 18.9891 8.56991 18.9384 8.31162 18.9386H7.02546C6.76741 18.9389 6.51183 18.8884 6.27335 18.7898C6.03487 18.6913 5.81817 18.5467 5.63567 18.3643C5.45316 18.1819 5.30843 17.9652 5.20976 17.7268C5.11109 17.4884 5.06043 17.2329 5.06066 16.9748L5.06156 15.6888C5.06156 15.1668 4.85455 14.6673 4.48554 14.2983L3.57649 13.3893C3.39375 13.2071 3.24877 12.9906 3.14985 12.7522C3.05092 12.5138 3 12.2583 3 12.0002C3 11.7421 3.05092 11.4866 3.14985 11.2482C3.24877 11.0099 3.39375 10.7934 3.57649 10.6111L4.48554 9.70304C4.85455 9.33405 5.06156 8.83366 5.06156 8.31257V7.02651C5.06121 6.76856 5.11173 6.51307 5.21023 6.27467C5.30873 6.03626 5.45328 5.81962 5.63561 5.63714C5.81794 5.45466 6.03447 5.30992 6.2728 5.2112C6.51113 5.11249 6.76659 5.06174 7.02456 5.06186L8.31072 5.06276C8.83275 5.06276 9.33227 4.85577 9.70129 4.48678L10.6103 3.5769Z" stroke="#777777" stroke-linecap="round"/>
</svg>
