<svg width="24" height="24" viewBox="0 0 24 24" fill="none" xmlns="http://www.w3.org/2000/svg">
<path d="M9.43776 6.06722C10.578 4.02241 11.1477 3 12 3C12.8523 3 13.422 4.02241 14.5622 6.06722L14.8574 6.59642C15.1814 7.17783 15.3434 7.46853 15.5954 7.66023C15.8474 7.85193 16.1624 7.92303 16.7924 8.06523L17.3648 8.19483C19.5787 8.69614 20.6848 8.94634 20.9485 9.79324C21.2113 10.6392 20.4571 11.5222 18.9478 13.2871L18.5572 13.7434C18.1289 14.2447 17.9138 14.4958 17.8175 14.8054C17.7212 15.1159 17.7536 15.4507 17.8184 16.1194L17.8778 16.7287C18.1055 19.084 18.2198 20.2612 17.5304 20.7841C16.841 21.307 15.8042 20.83 13.7325 19.876L13.1952 19.6294C12.6066 19.3576 12.3123 19.2226 12 19.2226C11.6877 19.2226 11.3934 19.3576 10.8048 19.6294L10.2684 19.876C8.19579 20.83 7.15901 21.307 6.47053 20.785C5.78025 20.2612 5.89454 19.084 6.12224 16.7287L6.18164 16.1203C6.24644 15.4507 6.27883 15.1159 6.18164 14.8063C6.08624 14.4958 5.87114 14.2447 5.44275 13.7443L5.05216 13.2871C3.5429 11.5231 2.78872 10.6401 3.05151 9.79324C3.3143 8.94634 4.42218 8.69524 6.63613 8.19483L7.20851 8.06523C7.8376 7.92303 8.15169 7.85193 8.40458 7.66023C8.65748 7.46853 8.81857 7.17783 9.14257 6.59642L9.43776 6.06722Z" stroke="#777777"/>
</svg>
