<svg width="512" height="512" viewBox="0 0 512 512" fill="none" xmlns="http://www.w3.org/2000/svg">
<rect width="512" height="512" rx="256" fill="#E5483D"/>
<path d="M150.552 294.554C161.066 281.674 185.546 269.166 210.785 286.313L214.514 288.856C222.503 294.33 231.319 300.5 238.827 305.793C238.897 304.835 238.933 303.865 238.933 302.887V236.435L134.828 167.305C127.287 161.542 125.759 150.641 131.414 142.958C137.07 135.274 147.767 133.716 155.307 139.479L256 206.001L356.693 139.479C364.233 133.716 374.93 135.274 380.586 142.958C386.241 150.641 384.713 161.542 377.172 167.305L273.067 236.435V302.887C273.067 310.745 271.843 318.326 269.582 325.437L280.923 331.631C299.192 339.654 312.523 338.132 323.264 332.083C328.799 328.966 332.753 324.822 335.344 321.365C336.625 319.657 337.515 318.194 338.045 317.244C338.308 316.773 338.477 316.44 338.555 316.28C338.583 316.222 338.599 316.187 338.603 316.178C338.6 316.184 338.592 316.204 338.578 316.236C338.571 316.252 338.562 316.272 338.552 316.294C338.547 316.305 338.542 316.318 338.536 316.331C342.354 307.572 352.411 303.609 361.022 307.48C369.645 311.357 373.552 321.624 369.747 330.412L354.088 323.371C354.103 323.378 354.118 323.385 354.133 323.391C369.747 330.411 369.745 330.417 369.742 330.423C369.742 330.423 369.739 330.43 369.737 330.434C369.734 330.442 369.73 330.45 369.727 330.458C369.719 330.475 369.712 330.493 369.704 330.511C369.688 330.548 369.67 330.588 369.65 330.632C369.61 330.721 369.564 330.824 369.51 330.942C369.402 331.176 369.264 331.467 369.097 331.809C368.762 332.493 368.304 333.386 367.713 334.444C366.537 336.551 364.813 339.354 362.467 342.483C357.806 348.7 350.453 356.512 339.774 362.526C318.537 374.486 294.134 375.168 267.883 363.779L266.632 363.228C266.224 363.046 265.824 362.847 265.432 362.633L251.572 355.064C238.64 367.996 220.9 376 201.319 376H196.263C186.981 376 177.862 373.51 169.823 368.781L168.846 368.205C157.729 361.665 148.716 350.34 144.307 337.91C139.822 325.268 139.375 308.848 150.062 295.168L150.552 294.554ZM191.852 315.253C187.818 312.512 184.86 312.562 182.743 313.088C180.215 313.718 178.079 315.298 176.973 316.58L176.766 316.832C175.561 318.374 174.656 321.149 176.407 326.085C178.234 331.233 182.149 335.869 185.912 338.083L186.891 338.658C189.74 340.335 192.972 341.217 196.263 341.218H201.319C208.542 341.218 215.293 339.146 221.03 335.542C213.234 330.039 203.858 323.468 195.485 317.733L191.852 315.253Z" fill="white"/>
</svg>
