<svg width="256" height="240" viewBox="0 0 256 240" fill="none" xmlns="http://www.w3.org/2000/svg">
<path d="M22.5525 158.554C33.0664 145.674 57.5457 133.166 82.7853 150.313L86.5137 152.856C94.5034 158.33 103.319 164.5 110.827 169.793C110.897 168.835 110.933 167.865 110.933 166.887V100.435L6.82762 31.3053C-0.712852 25.5423 -2.24104 14.6415 3.41431 6.95752C9.06966 -0.726414 19.767 -2.28368 27.3075 3.47927L128 70.0007L228.693 3.47927C236.233 -2.28368 246.93 -0.726414 252.586 6.95752C258.241 14.6415 256.713 25.5423 249.172 31.3053L145.067 100.435V166.887C145.067 174.745 143.843 182.326 141.582 189.437L152.923 195.631C171.192 203.654 184.523 202.132 195.264 196.083C200.799 192.966 204.753 188.822 207.344 185.365C208.625 183.657 209.515 182.194 210.045 181.244C210.308 180.773 210.477 180.44 210.555 180.28C210.583 180.222 210.599 180.187 210.603 180.178C210.6 180.184 210.592 180.204 210.578 180.236C210.571 180.252 210.562 180.272 210.552 180.294C210.547 180.305 210.542 180.318 210.536 180.331C214.354 171.572 224.411 167.609 233.022 171.48C241.645 175.357 245.552 185.624 241.747 194.412L226.088 187.371C226.103 187.378 226.118 187.385 226.133 187.391C241.747 194.411 241.745 194.417 241.742 194.423C241.742 194.423 241.739 194.43 241.737 194.434C241.734 194.442 241.73 194.45 241.727 194.458C241.719 194.475 241.712 194.493 241.704 194.511C241.688 194.548 241.67 194.588 241.65 194.632C241.61 194.721 241.564 194.824 241.51 194.942C241.402 195.176 241.264 195.467 241.097 195.809C240.762 196.493 240.304 197.386 239.713 198.444C238.537 200.551 236.813 203.354 234.467 206.483C229.806 212.7 222.453 220.512 211.774 226.526C190.537 238.486 166.134 239.168 139.883 227.779L138.632 227.228C138.224 227.046 137.824 226.847 137.432 226.633L123.572 219.064C110.64 231.996 92.9005 240 73.3188 240H68.263C58.9808 240 49.8617 237.51 41.8232 232.781L40.8457 232.205C29.7289 225.665 20.7161 214.34 16.3067 201.91C11.8223 189.268 11.3746 172.848 22.0625 159.168L22.5525 158.554ZM63.8522 179.253C59.818 176.512 56.8599 176.562 54.7431 177.088C52.2146 177.718 50.0793 179.298 48.9731 180.58L48.7656 180.832C47.5612 182.374 46.6561 185.149 48.4073 190.085C50.2336 195.233 54.1491 199.869 57.9122 202.083L58.8905 202.658C61.7403 204.335 64.9724 205.217 68.263 205.218H73.3188C80.542 205.218 87.2932 203.146 93.0303 199.542C85.2336 194.039 75.8578 187.468 67.4855 181.733L63.8522 179.253Z" fill="#E5483D"/>
</svg>
