<svg width="56" height="56" viewBox="0 0 56 56" fill="none" xmlns="http://www.w3.org/2000/svg">
<rect x="16.6" y="16.6" width="22.8" height="22.8" rx="11.4" stroke="#DBDBDB" stroke-width="1.2"/>
<path d="M26.2918 24.0448C27.052 22.6816 27.4318 22 28 22C28.5682 22 28.948 22.6816 29.7082 24.0448L29.905 24.3976C30.1209 24.7852 30.2289 24.979 30.3969 25.1068C30.5649 25.2346 30.7749 25.282 31.1949 25.3768L31.5765 25.4632C33.0525 25.7974 33.7899 25.9642 33.9657 26.5288C34.1409 27.0928 33.6381 27.6814 32.6319 28.858L32.3715 29.1622C32.0859 29.4964 31.9425 29.6638 31.8783 29.8703C31.8141 30.0773 31.8357 30.3005 31.8789 30.7463L31.9185 31.1525C32.0703 32.7227 32.1465 33.5075 31.6869 33.8561C31.2273 34.2047 30.5361 33.8867 29.155 33.2507L28.7968 33.0863C28.4044 32.9051 28.2082 32.8151 28 32.8151C27.7918 32.8151 27.5956 32.9051 27.2032 33.0863L26.8456 33.2507C25.4639 33.8867 24.7727 34.2047 24.3137 33.8567C23.8535 33.5075 23.9297 32.7227 24.0815 31.1525L24.1211 30.7469C24.1643 30.3005 24.1859 30.0773 24.1211 29.8709C24.0575 29.6638 23.9141 29.4964 23.6285 29.1628L23.3681 28.858C22.3619 27.682 21.8591 27.0934 22.0343 26.5288C22.2095 25.9642 22.9481 25.7968 24.4241 25.4632L24.8057 25.3768C25.2251 25.282 25.4345 25.2346 25.6031 25.1068C25.7717 24.979 25.879 24.7852 26.095 24.3976L26.2918 24.0448Z" stroke="#DBDBDB" stroke-width="1.2"/>
</svg>
